<svg xmlns="http://www.w3.org/2000/svg" width="122" height="118" viewBox="0 0 122 118">
  <g id="Group_373" data-name="Group 373" transform="translate(-136 -805)">
    <rect id="Rectangle_151" data-name="Rectangle 151" width="122" height="118" rx="32" transform="translate(136 805)" fill="#fff"/>
    <g id="Group_372" data-name="Group 372" transform="translate(170.142 834.912)">
      <path id="Path_888" data-name="Path 888" d="M22.548,39.8c-3.777-6.542-8.2-16.054,1.077-20.213l1.642-.736L21.483,8.369C6.07,13.855,11.21,32.353,17.285,42.832c6.107,10.536,19.5,24.217,31.944,13.6l-7.184-8.518-1.46,1.055c-8.232,5.949-14.26-2.636-18.034-9.174Zm17-31.384C37.824,8,38.011,5,40.615,5.652A28.645,28.645,0,0,1,61.04,41.6c-.494,1.657-3.448,1.406-2.718-1.184A25.7,25.7,0,0,0,39.547,8.414Zm-2.2,8.291c-1.732-.39-1.58-3.417,1.046-2.771a20,20,0,0,1,12.579,9.45h0A20,20,0,0,1,52.749,39.4a1.47,1.47,0,0,1-2.807-.874A17.077,17.077,0,0,0,48.43,24.856h0A17.054,17.054,0,0,0,37.344,16.7Zm-2.17,8.306c-1.768-.331-1.7-3.434,1.027-2.785a11.432,11.432,0,0,1,7.343,5.445h0a11.438,11.438,0,0,1,.89,9.556,1.468,1.468,0,0,1-2.772-.966,8.555,8.555,0,0,0-.66-7.117h0a8.527,8.527,0,0,0-5.834-4.131ZM21.121,28.552c.335,2.992,2.073,6.489,3.969,9.774h0c2.995,4.991,7.545,12.77,13.783,8.262l2.5-1.8a1.469,1.469,0,0,1,2.044.195L52.387,55.62h0a1.469,1.469,0,0,1-.1,2.007c-14.156,13.608-30.009-.289-37.541-13.322C7.221,31.291,3.033,10.617,21.972,5.131h0a1.466,1.466,0,0,1,1.789.914l4.708,13.036C29.778,22.5,20.259,20.836,21.121,28.552Z" transform="translate(-8.401 -5.073)" fill="#e2b57c" fill-rule="evenodd"/>
    </g>
  </g>
</svg>
