<svg xmlns="http://www.w3.org/2000/svg" width="101.288" height="101.28" viewBox="0 0 101.288 101.28">
  <g id="Group_431" data-name="Group 431" transform="translate(-3 -3.005)">
    <path id="Path_897" data-name="Path 897" d="M99.049,17.474H92.5V6.489a3.488,3.488,0,0,0-5.047-3.108L53.644,16.828,20.271,3.363a3.551,3.551,0,0,0-3.37.14,3.472,3.472,0,0,0-1.676,2.986V17.474H8.239A5.239,5.239,0,0,0,3,22.7V99.08a5.236,5.236,0,0,0,5.239,5.2h90.81a5.239,5.239,0,0,0,5.239-5.222V22.678A5.236,5.236,0,0,0,99.049,17.474ZM8.239,100.792a1.737,1.737,0,0,1-1.746-1.729V22.678a1.748,1.748,0,0,1,1.746-1.729h6.985V87.991a5.228,5.228,0,0,0,3.44,4.907l24.047,7.893Zm43.658-.664-32.063-10.5a1.736,1.736,0,0,1-1.118-1.624l.017-81.519a.62.62,0,0,0,.157.07L51.9,19.9ZM55.39,19.9,88.815,6.577c.052-.017.14-.07.192-.087v81.5A1.746,1.746,0,0,1,87.959,89.6L55.39,100.128Zm45.4,79.162a1.748,1.748,0,0,1-1.746,1.729H64.7l24.414-7.911a5.272,5.272,0,0,0,3.388-4.89V20.966h6.549a1.737,1.737,0,0,1,1.746,1.729Z" fill="#e2b57c"/>
    <path id="Path_898" data-name="Path 898" d="M16.187,30.568l20.956,6.985a1.5,1.5,0,0,0,.559.087,1.738,1.738,0,0,0,.559-3.388L17.3,27.267a1.742,1.742,0,1,0-1.118,3.3Z" transform="translate(8.956 18.043)" fill="#e2b57c"/>
    <path id="Path_899" data-name="Path 899" d="M16.187,16.571l20.956,6.985a1.5,1.5,0,0,0,.559.087,1.738,1.738,0,0,0,.559-3.388L17.3,13.27a1.742,1.742,0,1,0-1.118,3.3Z" transform="translate(8.956 7.592)" fill="#e2b57c"/>
    <path id="Path_900" data-name="Path 900" d="M16.187,23.571l20.956,6.985a1.5,1.5,0,0,0,.559.087,1.738,1.738,0,0,0,.559-3.388L17.3,20.27a1.742,1.742,0,1,0-1.118,3.3Z" transform="translate(8.956 12.816)" fill="#e2b57c"/>
    <path id="Path_901" data-name="Path 901" d="M16.187,37.571l20.956,6.985a1.5,1.5,0,0,0,.559.087,1.738,1.738,0,0,0,.559-3.388L17.3,34.27a1.742,1.742,0,1,0-1.118,3.3Z" transform="translate(8.956 23.265)" fill="#e2b57c"/>
    <path id="Path_902" data-name="Path 902" d="M16.187,44.571l20.956,6.985a1.5,1.5,0,0,0,.559.087,1.738,1.738,0,0,0,.559-3.388L17.3,41.27a1.742,1.742,0,1,0-1.118,3.3Z" transform="translate(8.956 28.489)" fill="#e2b57c"/>
    <path id="Path_903" data-name="Path 903" d="M57.146,27.26,36.19,34.245a1.738,1.738,0,0,0,.559,3.388,2.18,2.18,0,0,0,.559-.087l20.956-6.985a1.732,1.732,0,0,0,1.1-2.2A1.751,1.751,0,0,0,57.146,27.26Z" transform="translate(23.88 18.033)" fill="#e2b57c"/>
    <path id="Path_904" data-name="Path 904" d="M57.146,20.26,36.19,27.245a1.738,1.738,0,0,0,.559,3.388,2.18,2.18,0,0,0,.559-.087l20.956-6.985a1.732,1.732,0,0,0,1.1-2.2A1.751,1.751,0,0,0,57.146,20.26Z" transform="translate(23.88 12.809)" fill="#e2b57c"/>
    <path id="Path_905" data-name="Path 905" d="M57.146,13.26,36.19,20.245a1.738,1.738,0,0,0,.559,3.388,2.18,2.18,0,0,0,.559-.087l20.956-6.985a1.732,1.732,0,0,0,1.1-2.2A1.751,1.751,0,0,0,57.146,13.26Z" transform="translate(23.88 7.584)" fill="#e2b57c"/>
    <path id="Path_906" data-name="Path 906" d="M57.146,34.26,36.19,41.245a1.738,1.738,0,0,0,.559,3.388,2.18,2.18,0,0,0,.559-.087l20.956-6.985a1.732,1.732,0,0,0,1.1-2.2A1.751,1.751,0,0,0,57.146,34.26Z" transform="translate(23.88 23.257)" fill="#e2b57c"/>
    <path id="Path_907" data-name="Path 907" d="M57.146,41.26,36.19,48.245a1.738,1.738,0,0,0,.559,3.388,2.18,2.18,0,0,0,.559-.087l20.956-6.985a1.732,1.732,0,0,0,1.1-2.2A1.751,1.751,0,0,0,57.146,41.26Z" transform="translate(23.88 28.482)" fill="#e2b57c"/>
  </g>
</svg>
