<svg xmlns="http://www.w3.org/2000/svg" width="129.173" height="120.5" viewBox="0 0 129.173 120.5">
  <g id="Group_433" data-name="Group 433" transform="translate(-20648 -15009.564)">
    <path id="Path_908" data-name="Path 908" d="M52.675,63.951a1.5,1.5,0,1,0-2.055,2.172c3.934,3.714,5.108,11.332,4.624,14.194a1.458,1.458,0,0,0,1.468,1.747,1.482,1.482,0,0,0,1.468-1.248,20.98,20.98,0,0,0-.734-8.191,19.01,19.01,0,0,0-4.771-8.69Z" transform="translate(20662.656 15026.156)" fill="#e2b57c"/>
    <path id="Path_909" data-name="Path 909" d="M96.833,44.5a8.444,8.444,0,0,0-6.738.661,3.322,3.322,0,0,0-.382.235,9.489,9.489,0,0,0-1.277-4.771,9.4,9.4,0,0,0-13.372-3.068,7.358,7.358,0,0,0-1.057.837,9.128,9.128,0,0,0-17.13-2.3A8.815,8.815,0,0,0,41.3,41.075l-.646,8.881c-4.492,2.848-9.776,6.635-13.607,9.468a10.328,10.328,0,0,0-3.89,10.994c1.85,7.075,5.7,15.824,11.435,25.982,3.611,6.415,6.884,11.391,7.809,12.771v8.455a1.5,1.5,0,0,0,2.994,0v-8.91a1.45,1.45,0,0,0-.264-.837c-.147-.22-14.826-21.9-19.083-38.224a7.369,7.369,0,0,1,2.774-7.839c4.3-3.171,10.422-7.545,15.134-10.393a6.616,6.616,0,0,1,6.253-.352l17.849,8.235a2.406,2.406,0,0,1,1.38,1.732,2.454,2.454,0,0,1-.543,2.143,11.325,11.325,0,0,1-9.717,3.89A109.3,109.3,0,0,1,48.173,65.6a1.515,1.515,0,0,0-1.2.206c-.044.029-3.714,2.51-5.593,3.8a1.5,1.5,0,0,0,1.7,2.466c.969-.661,2.407-1.644,3.582-2.437a.737.737,0,0,1,.176.029,17.918,17.918,0,0,1,8.455,3.039,1.51,1.51,0,0,0,.881.294,1.494,1.494,0,0,0,1.2-.6,1.514,1.514,0,0,0-.308-2.1c-.25-.176-.5-.352-.749-.514q1.211.132,2.554.264a14.305,14.305,0,0,0,10.07-2.833l-.117,1.042a5.486,5.486,0,0,1-5.461,4.888,1.5,1.5,0,1,0,0,2.994,8.516,8.516,0,0,0,6.092-2.569,7.368,7.368,0,0,0,6.752,4.433,7.3,7.3,0,0,0,3.538-.91,8.391,8.391,0,0,0,.851-.543,7.711,7.711,0,0,0,7.56,6.136,7.533,7.533,0,0,0,3.494-.851,7.627,7.627,0,0,0,3.861-4.609L98.4,67.747A253.5,253.5,0,0,1,95,93.1a25.713,25.713,0,0,1-8.25,14.694c-3.376,2.877-6.488,3.743-7.222,3.611a1.5,1.5,0,1,0-.514,2.95,4.122,4.122,0,0,0,.631.044,13.966,13.966,0,0,0,7.09-2.818v6.048a1.5,1.5,0,1,0,2.994,0v-8.484a28.912,28.912,0,0,0,8.205-15.428c2.95-14.327,4.389-37.255,4.506-39.207a8.441,8.441,0,0,0-5.593-10.026Zm-53.093,3.7.5-6.9a5.828,5.828,0,0,1,11.64.411v8.719L51.4,48.356a9.662,9.662,0,0,0-7.662-.191ZM69.252,56.62,58.874,51.835V40.165a6.151,6.151,0,0,1,10.7-4.139,6.038,6.038,0,0,1,1.571,4.712v.029L69.883,56.972a5.213,5.213,0,0,0-.631-.338ZM78.279,74.5a4.378,4.378,0,0,1-6.473-4.2l2.128-25.644a6.314,6.314,0,0,1,2.789-4.594,6.408,6.408,0,0,1,9.805,6.84L80.437,71.725a4.333,4.333,0,0,1-2.158,2.8ZM92.62,76.392a4.717,4.717,0,0,1-6.033,3.083h0a4.709,4.709,0,0,1-3.068-5.549l5.387-22.65a5.457,5.457,0,0,1,5.284-4.2,5.24,5.24,0,0,1,1.7.279,5.467,5.467,0,0,1,3.6,6.561L92.62,76.407Z" transform="translate(20649.867 15010.941)" fill="#e2b57c"/>
    <path id="Path_910" data-name="Path 910" d="M50.477,22.411a1.5,1.5,0,0,0,1.5-1.5V10.447a1.5,1.5,0,0,0-2.994,0V20.913a1.5,1.5,0,0,0,1.5,1.5Z" transform="translate(20662.111 15000.614)" fill="#e2b57c"/>
    <path id="Path_911" data-name="Path 911" d="M17.963,60.57H7.5a1.5,1.5,0,0,0,0,2.994H17.963a1.5,1.5,0,0,0,0-2.994Z" transform="translate(20642 15024.768)" fill="#e2b57c"/>
    <path id="Path_912" data-name="Path 912" d="M31.513,27.955a1.494,1.494,0,0,0,1.2.6,1.589,1.589,0,0,0,.9-.294,1.5,1.5,0,0,0,.308-2.1l-6.239-8.411a1.5,1.5,0,1,0-2.407,1.791Z" transform="translate(20650.879 15004.451)" fill="#e2b57c"/>
    <path id="Path_913" data-name="Path 913" d="M21.447,41.206l-9.894-3.42a1.5,1.5,0,0,0-.983,2.833l9.894,3.42a1.409,1.409,0,0,0,.484.088,1.475,1.475,0,0,0,1.409-1.013,1.514,1.514,0,0,0-.925-1.908Z" transform="translate(20643.668 15014.068)" fill="#e2b57c"/>
    <path id="Path_914" data-name="Path 914" d="M96.793,60.57H86.327a1.5,1.5,0,0,0,0,2.994H96.793a1.5,1.5,0,0,0,0-2.994Z" transform="translate(20678.883 15024.768)" fill="#e2b57c"/>
    <path id="Path_915" data-name="Path 915" d="M69.343,28.263a1.455,1.455,0,0,0,.9.294,1.494,1.494,0,0,0,1.2-.6l6.239-8.411a1.5,1.5,0,0,0-2.407-1.791l-6.239,8.411A1.5,1.5,0,0,0,69.343,28.263Z" transform="translate(20671.355 15004.451)" fill="#e2b57c"/>
    <path id="Path_916" data-name="Path 916" d="M94.462,38.7a1.5,1.5,0,0,0-1.908-.925L82.66,41.2a1.5,1.5,0,0,0,.484,2.921,1.409,1.409,0,0,0,.484-.088l9.894-3.42a1.5,1.5,0,0,0,.925-1.908Z" transform="translate(20677.396 15014.063)" fill="#e2b57c"/>
  </g>
</svg>
