<svg xmlns="http://www.w3.org/2000/svg" width="99.118" height="107.41" viewBox="0 0 99.118 107.41">
  <path id="Path_917" data-name="Path 917" d="M110.277,83.752a7.185,7.185,0,0,0-8.682-3.4l-9.563,3.4A37.842,37.842,0,0,0,59.19,61.732V53.3c18.874-1.762,38-17.868,38-41.146V10.771l-1.384-.252c-13.715-2.265-22.9,2.517-28.312,7.046A34.968,34.968,0,0,0,56.17,35.811a21.986,21.986,0,0,0-5.662-5.662c-7.676-5.537-17.742-6.795-27.683-3.523L21.693,27v1.258c0,11.325,15.729,25.292,33.974,25.292h.126v8.3A38.111,38.111,0,0,0,28.11,75.573a1.429,1.429,0,0,0-.377,1.007,20.891,20.891,0,0,0-5.285,1.51l-9.437,4.278a1.718,1.718,0,1,0,1.384,3.146l9.437-4.152a19.921,19.921,0,0,1,19.252,2.265l8.431,5.285a11.123,11.123,0,0,0,6.921,1.636l12.583-1.258a3.265,3.265,0,0,1,3.4,2.391,3.191,3.191,0,0,1-2.139,3.649l-9.689,3.02a20.477,20.477,0,0,1-10.318.5l-8.179-1.636A1.783,1.783,0,0,0,42.077,98.6a1.632,1.632,0,0,0,1.384,2.013l8.179,1.636a20.594,20.594,0,0,0,4.782.5,23.106,23.106,0,0,0,7.172-1.132l9.689-3.02a6.315,6.315,0,0,0,4.53-5.788l25.04-9.06a3.7,3.7,0,0,1,4.53,1.762,3.829,3.829,0,0,1,.252,2.894,3.221,3.221,0,0,1-1.887,2.139L60.952,113.2a7.393,7.393,0,0,1-5.662.5l-29.067-8.682a12.808,12.808,0,0,0-6.166-.252l-4.278.881a1.679,1.679,0,0,0,.755,3.272l4.152-.881a9.212,9.212,0,0,1,4.53.126l29.067,8.682a13.659,13.659,0,0,0,3.146.5,10.3,10.3,0,0,0,5.033-1.258l44.67-22.775a6.748,6.748,0,0,0,3.523-4.152A6.253,6.253,0,0,0,110.277,83.752ZM59.316,44.619V39.334c0-4.027,2.894-12.709,10.444-19.126,4.53-3.9,12.457-8.053,24.034-6.543-.755,20.51-17.616,34.6-34.477,36.239ZM55.793,50.03c-15.477,0-29.318-11.2-30.451-20.636C33.773,27,42.2,28.135,48.621,32.917c4.4,3.146,7.172,7.676,7.172,11.7V50.03ZM70.641,85.766,58.058,87.024A7.57,7.57,0,0,1,53.4,85.891l-8.3-5.285a23.338,23.338,0,0,0-13.086-4.4A34.553,34.553,0,0,1,88.76,84.885l-11.7,4.4A6.337,6.337,0,0,0,70.641,85.766Z" transform="translate(-11.984 -9.938)" fill="#e2b57c"/>
</svg>
