<svg xmlns="http://www.w3.org/2000/svg" width="103.395" height="99.802" viewBox="0 0 103.395 99.802">
  <path id="Path_918" data-name="Path 918" d="M8.141,59.063h97.118a.392.392,0,0,0,.388-.388V55.558a.394.394,0,0,0-.388-.388H8.141a.393.393,0,0,0-.388.388v3.117a.393.393,0,0,0,.388.388ZM72.419,29.482H95.644a.824.824,0,0,0,.818-.818v-1.4a.824.824,0,0,0-.818-.818H72.419a.824.824,0,0,0-.818.818v1.4a.824.824,0,0,0,.818.818Zm21.746,2.752H73.9l-2.222,4.15a6.253,6.253,0,0,0-.774,3.1V52.418h3.126V42.326a1.377,1.377,0,0,1,1.376-1.376H92.66a1.377,1.377,0,0,1,1.376,1.376V52.418h3.126V39.486a6.241,6.241,0,0,0-.774-3.1l-2.222-4.15h0Zm-23.208-.315-1.7,3.173a8.962,8.962,0,0,0-1.108,4.57c-2.809,1.306-5.132.887-7.921-.2A20.708,20.708,0,0,0,63.478,31a1.371,1.371,0,0,0-2.709-.418c-.842,5.4-4.02,10.845-9.516,12.317C45.9,44.33,40.381,41.3,36.847,36.974a1.375,1.375,0,1,0-2.128,1.742,20.963,20.963,0,0,0,7.061,5.667,13.638,13.638,0,0,1-3.354,3.109A8.052,8.052,0,0,1,33.871,48.6L31.453,35.449a10.034,10.034,0,0,1,2.993-4.259A8,8,0,0,1,39.1,29.359a1.372,1.372,0,1,0-.14-2.741A11.066,11.066,0,0,0,30.671,31.2l-.4-2.168a6.841,6.841,0,0,0-2.92-4.43,8.954,8.954,0,0,1,6.248-7.29c.658-.172,1.19-.321,1.383-1.094a9.833,9.833,0,0,1,2.282-4.314,7.971,7.971,0,0,1,8.458-2.171A9.927,9.927,0,0,1,49.9,12.482a1.367,1.367,0,0,0,1.787.314,7.859,7.859,0,0,1,1-.515c4.948-2.12,10.264,1.242,12.14,6.233a1.372,1.372,0,0,0,1.027.874,10.025,10.025,0,0,1,6.23,4.32A3.563,3.563,0,0,0,69.9,24.739c-1.2,1.2-1.048,2.4-1.048,3.92a3.578,3.578,0,0,0,2.108,3.256h0Zm4.289-8.224h20.4a3.577,3.577,0,0,1,3.57,3.57c0,1.517.15,2.722-1.048,3.92a3.582,3.582,0,0,1-1.06.733l1.7,3.173a8.942,8.942,0,0,1,1.108,4.393V52.416h5.345a3.146,3.146,0,0,1,3.14,3.14v3.117a3.146,3.146,0,0,1-3.14,3.14h-2.915L96.11,98.6a9.269,9.269,0,0,1-9.182,7.764H26.469A9.267,9.267,0,0,1,17.287,98.6l-6.231-36.79H8.141A3.146,3.146,0,0,1,5,58.672V55.555a3.146,3.146,0,0,1,3.14-3.14h4.984q-3.052-8.579-6.1-17.156c-1.452-4.083,1.343-8.443,5.415-9.535l1.33-.356a19.137,19.137,0,0,0-6.106-3.514,1.371,1.371,0,0,1,.957-2.57,23.074,23.074,0,0,1,6.091,3.3A33.129,33.129,0,0,0,12.369,16.4a1.375,1.375,0,1,1,2.386-1.366,35.82,35.82,0,0,1,2.655,7.006A11.761,11.761,0,0,1,20.142,17.1,1.372,1.372,0,0,1,22.1,19.021a10.04,10.04,0,0,0-2.307,4.732l1.633-.409a7.98,7.98,0,0,1,3.366.11,11.659,11.659,0,0,1,7.751-8.7C35.2,6.343,44.777,3.843,51.225,9.93c6.21-2.954,13.137.689,15.889,6.933a13.135,13.135,0,0,1,8.133,6.831h0ZM91.283,52.417h-14.5V43.7h14.5v8.717Zm-23.133,0V42.629q-.353.124-.7.221A8.1,8.1,0,0,0,64.7,46.769a16.681,16.681,0,0,0-.8,5.649h4.249ZM38.156,24.367a8.213,8.213,0,0,1,11.684-4.2,1.373,1.373,0,1,0,1.3-2.42,10.952,10.952,0,0,0-15.5,5.53,1.37,1.37,0,0,0,2.515,1.086h0ZM56.283,43.516l.8,3A18.649,18.649,0,0,1,59.173,42q-.376-.148-.758-.308a15.06,15.06,0,0,1-2.13,1.824h0Zm-.461,8.9-2.013-7.51a13.146,13.146,0,0,1-3.613.988l1.747,6.522h3.877ZM48.157,48.9l-.792-2.954a15.156,15.156,0,0,1-2.908-.539c-.152.2-.3.393-.456.582A18.893,18.893,0,0,1,48.157,48.9h0Zm13,3.516a16.406,16.406,0,0,1,2.285-9.261,12.784,12.784,0,0,1-1.582-.285C59.832,46.1,59,48.363,59.269,52.417ZM40.884,49.133a13.294,13.294,0,0,1,4.164,3.283h2.56A14.763,14.763,0,0,0,42.1,48.091a14.16,14.16,0,0,1-1.216,1.041h0Zm.149,3.283q-.265-.193-.54-.365a7.5,7.5,0,0,0-3.118-1.125,11.1,11.1,0,0,1-3,.424l.2,1.066ZM67.45,27.409A8.463,8.463,0,0,0,61.5,21.976a11.091,11.091,0,0,0-7.733.676A1.373,1.373,0,1,0,55,25.1a6.41,6.41,0,0,1,.825-.344c3.231-1.11,7.74-.2,9.024,3.543a1.376,1.376,0,0,0,2.6-.893h0Zm-39.875,2.12c-.493-2.68-3.517-4.072-6.045-3.394l-8.382,2.246c-2.568.688-4.439,3.419-3.534,5.965l1.962,5.516,10.9-2.92a1.374,1.374,0,0,1,.709,2.655L12.5,42.459l2.055,5.779,7.878-2.11a1.374,1.374,0,0,1,.709,2.655l-7.663,2.053.562,1.58H31.784q-2.1-11.445-4.209-22.888h0ZM55.324,69.494V81.96a1.376,1.376,0,0,0,2.753,0V69.494a1.376,1.376,0,0,0-2.753,0Zm0,17.334v9.107a1.376,1.376,0,0,0,2.753,0V86.828a1.376,1.376,0,0,0-2.753,0ZM72.053,69.267,67.574,95.709a1.373,1.373,0,0,0,2.709.451l4.478-26.441a1.373,1.373,0,0,0-2.709-.45h0Zm-33.415.452L43.116,96.16a1.373,1.373,0,0,0,2.709-.451L41.347,69.267a1.373,1.373,0,1,0-2.709.45h0Zm46.487-.452-2.6,15.351a1.373,1.373,0,1,0,2.709.45l2.6-15.351a1.373,1.373,0,1,0-2.709-.45h0ZM81.7,89.486l-1.054,6.222a1.373,1.373,0,0,0,2.709.451l1.054-6.222a1.373,1.373,0,0,0-2.708-.452h0ZM25.565,69.719l1.3,7.677a1.373,1.373,0,1,0,2.708-.45l-1.3-7.677a1.373,1.373,0,1,0-2.708.45Zm2.124,12.545,2.354,13.9a1.373,1.373,0,1,0,2.708-.451L30.4,81.812a1.373,1.373,0,1,0-2.708.452ZM13.84,61.813l6.155,36.339a6.509,6.509,0,0,0,6.473,5.463H86.928A6.509,6.509,0,0,0,93.4,98.152l6.155-36.339H13.84Z" transform="translate(-5.001 -6.564)" fill="#e2b57c" fill-rule="evenodd"/>
</svg>
