<svg xmlns="http://www.w3.org/2000/svg" width="109.29" height="99.675" viewBox="0 0 109.29 99.675">
  <path id="Path_919" data-name="Path 919" d="M87.382,41.227H91.2a1.607,1.607,0,0,0,0-3.214H88.883a38.4,38.4,0,0,0,2.166-7.19,19.933,19.933,0,0,0-1.79-13.288A19.018,19.018,0,0,0,80.386,9.1,17.744,17.744,0,0,0,68.455,8.021,21.213,21.213,0,0,0,58.083,14.6,21.207,21.207,0,0,0,47.71,8.021,17.744,17.744,0,0,0,35.78,9.1a19.018,19.018,0,0,0-8.874,8.437,19.935,19.935,0,0,0-1.788,13.288,38.465,38.465,0,0,0,2.166,7.19H24.962a1.607,1.607,0,0,0,0,3.214h3.823c4.366,8.33,11.382,14.5,18.7,20.928,3.152,2.769,6.412,5.634,9.461,8.7a1.607,1.607,0,0,0,2.279,0c3.049-3.064,6.309-5.929,9.461-8.7C76,55.726,83.017,49.557,87.382,41.227ZM28.271,30.194a16.047,16.047,0,0,1,8.848-18.176,14.805,14.805,0,0,1,6.137-1.334c4.4,0,9.328,1.969,13.562,7.4a1.608,1.608,0,0,0,2.536,0c6.388-8.194,14.363-8.506,19.7-6.067A16.048,16.048,0,0,1,87.9,30.193a34.826,34.826,0,0,1-2.533,7.817H73.977l-5.629-9.859a1.607,1.607,0,0,0-2.927.308l-6.092,19.1L49.892,21.243a1.607,1.607,0,0,0-3.055.089l-4.913,16.68H30.8A34.856,34.856,0,0,1,28.271,30.194ZM58.085,67.458c-2.781-2.713-5.672-5.252-8.479-7.718-6.6-5.8-12.943-11.375-17.124-18.514H43.126a1.606,1.606,0,0,0,1.541-1.153l3.861-13.108,9.377,26.152a1.607,1.607,0,0,0,1.512,1.065h.029a1.607,1.607,0,0,0,1.5-1.119l6.422-20.138,4.276,7.49a1.608,1.608,0,0,0,1.4.811H83.686c-4.18,7.139-10.526,12.716-17.124,18.513C63.757,62.206,60.867,64.746,58.085,67.458Zm54.644-36.4a7.021,7.021,0,0,0-7-7.006h0a7.021,7.021,0,0,0-7,7v17.97a7.936,7.936,0,0,0-11.745,4.758l-1.733,6.467a8.658,8.658,0,0,1-4.223,5.5L72.4,70.733c-3.491,2.016-4.1,5.684-4.806,9.93a46.325,46.325,0,0,1-1.811,7.843l-.551-.148a2.792,2.792,0,0,0-3.416,1.972l-1.275,4.756A2.792,2.792,0,0,0,62.51,98.5l31.811,8.523a2.792,2.792,0,0,0,3.416-1.972l1.275-4.756a2.787,2.787,0,0,0-1.9-3.392c2.147-6.748,5.4-9.9,9.79-14.153.8-.774,1.625-1.574,2.49-2.44a11.02,11.02,0,0,0,3.336-8.052ZM94.741,103.812l-30.989-8.3,1.054-3.933,29.878,8.006h0l1.108.3Zm12.38-25.768c-.847.847-1.664,1.638-2.454,2.4-4.59,4.445-8.274,8.014-10.662,15.625l-25.118-6.73a50.625,50.625,0,0,0,1.872-8.15c.7-4.216,1.162-6.472,3.242-7.673l8.621-4.978a11.882,11.882,0,0,0,5.721-7.457l1.733-6.467a4.724,4.724,0,0,1,8.76-.946,1.5,1.5,0,0,0,.089.182,4.7,4.7,0,0,1,.281,3.211l-2.533,9.456A8.8,8.8,0,0,1,94.4,70.547a1.607,1.607,0,0,0,2.269,2.276,11.959,11.959,0,0,0,3.109-5.472l2.534-9.457a7.9,7.9,0,0,0-.38-5.189V31.058a3.806,3.806,0,0,1,3.791-3.79h0a3.806,3.806,0,0,1,3.791,3.79V72.265A7.813,7.813,0,0,1,107.122,78.044ZM54.357,90.333a2.792,2.792,0,0,0-3.416-1.972l-.551.148a46.468,46.468,0,0,1-1.811-7.843c-.705-4.247-1.315-7.914-4.806-9.93l-8.621-4.978a8.661,8.661,0,0,1-4.223-5.5L29.2,53.787a7.936,7.936,0,0,0-11.745-4.758V31.059A7,7,0,0,0,5.5,26.112a6.949,6.949,0,0,0-2.056,4.948V72.265a11.02,11.02,0,0,0,3.336,8.052c.865.865,1.691,1.665,2.49,2.44,4.39,4.251,7.644,7.405,9.79,14.153a2.785,2.785,0,0,0-1.9,3.391l1.274,4.757a2.785,2.785,0,0,0,3.416,1.972L53.659,98.5a2.792,2.792,0,0,0,1.972-3.415ZM11.5,80.446c-.79-.765-1.606-1.556-2.454-2.4a7.808,7.808,0,0,1-2.394-5.779V31.057a3.791,3.791,0,0,1,7.583,0V52.7a7.9,7.9,0,0,0-.38,5.189l2.534,9.457A11.986,11.986,0,0,0,19.5,72.823a1.607,1.607,0,1,0,2.269-2.276A8.8,8.8,0,0,1,19.5,66.52l-2.534-9.457a4.7,4.7,0,0,1,.281-3.211,1.422,1.422,0,0,0,.089-.182,4.724,4.724,0,0,1,8.76.946l1.733,6.467a11.882,11.882,0,0,0,5.721,7.457l8.621,4.978c2.08,1.2,2.542,3.457,3.242,7.673a50.369,50.369,0,0,0,1.872,8.15L22.163,96.072C19.776,88.461,16.093,84.891,11.5,80.446Zm9.925,23.366-1.054-3.933,30.988-8.3,1.054,3.933Z" transform="translate(-3.44 -7.449)" fill="#e2b57c"/>
</svg>
