<svg xmlns="http://www.w3.org/2000/svg" width="127.411" height="79.155" viewBox="0 0 127.411 79.155">
  <path id="Path_883" data-name="Path 883" d="M134.467-153.762c3.528-1.176,4.116,4.116.588,5.292-36.162,5.88-49.392-29.106-47.922-49.392,1.176-16.758,14.112-29.106,30.282-29.106a28.985,28.985,0,0,1,29.106,29.106c0,16.17-12.936,30.576-29.106,29.106-9.114-.882-19.11-6.174-17.934-21.756.294-2.646-2.646-3.234-3.234-.294C94.483-171.4,110.065-149.94,134.467-153.762Zm-67.914,0c3.528-1.176,4.116,4.116.588,5.292-36.162,5.88-49.392-29.106-47.922-49.392C20.4-214.62,33.331-226.968,49.5-226.968a28.985,28.985,0,0,1,29.106,29.106c0,16.17-12.936,30.576-29.106,29.106-9.114-.882-19.11-6.174-17.934-21.756.294-2.646-2.646-3.234-3.234-.294C26.569-171.4,42.151-149.94,66.553-153.762Z" transform="translate(-19.11 226.968)" fill="#e2b57c"/>
</svg>
