<svg xmlns="http://www.w3.org/2000/svg" width="130.996" height="116.866" viewBox="0 0 130.996 116.866">
  <g id="Group_432" data-name="Group 432" transform="translate(-996.6 -1104.8)">
    <path id="Path_920" data-name="Path 920" d="M1183.562,1273.315a5.26,5.26,0,0,0,5.255-5.255v-20.478a19.034,19.034,0,0,0,3.721,1.195v5.627a16.547,16.547,0,0,0,8.408,14.414,18.6,18.6,0,0,0-9.067,3.655,18.984,18.984,0,0,0-4.1,4.237,18.646,18.646,0,0,0-2.611,5.359,1.135,1.135,0,0,0,.757,1.417,1.179,1.179,0,0,0,.327.052,1.122,1.122,0,0,0,1.083-.81,16.69,16.69,0,0,1,15.875-11.763h11.737a16.519,16.519,0,0,1,1.971.117,31.8,31.8,0,0,0,3.773.222,30.96,30.96,0,0,0,9.491-1.469c.215-.072.431-.144.64-.216.026-.007.052-.02.078-.026a29.213,29.213,0,0,0,5.327-2.507,27.793,27.793,0,0,0,5.307-4.158l10.484-10.483a1.135,1.135,0,1,0-1.606-1.606l-10.484,10.484a25.891,25.891,0,0,1-8.3,5.562v-22.031a22.553,22.553,0,1,0-45.107,0v23.206a2.987,2.987,0,0,1-2.983,2.983,1.137,1.137,0,0,0-1.136,1.136A1.159,1.159,0,0,0,1183.562,1273.315Zm11.241-18.9v-5.288q.881.078,1.763.078a19.261,19.261,0,0,0,13.649-5.66,19.36,19.36,0,0,0,2.572-3.186,19.322,19.322,0,0,0,10.575,8v6.044a14.279,14.279,0,0,1-28.559.007Zm22.423,14.419a16.7,16.7,0,0,0,3.571-2.715,16.47,16.47,0,0,0,4.85-11.7v-5.5a19.4,19.4,0,0,0,3.375.294c.111,0,.229,0,.339-.007v18.519A28.835,28.835,0,0,1,1217.226,1268.83Zm12.135-23.976v2.076c-.111,0-.228.007-.339.007a17.134,17.134,0,0,1-4.152-.509.644.644,0,0,0-.15-.039,16.935,16.935,0,0,1-10.647-8.323c.1-.216.2-.431.294-.653a19.225,19.225,0,0,0,1.521-7.513,19.471,19.471,0,0,0-.483-4.315A20.319,20.319,0,0,1,1229.361,1244.854Zm-20.275-20.275a20.7,20.7,0,0,1,3.786.352,17.042,17.042,0,0,1-1.051,12.559.719.719,0,0,0-.078.157,17.056,17.056,0,0,1-15.17,9.289,16.532,16.532,0,0,1-2.6-.2,1.3,1.3,0,0,0-.229-.039,17.043,17.043,0,0,1-4.922-1.625v-.215A20.29,20.29,0,0,1,1209.085,1224.579Z" transform="translate(-173.672 -109.83)" fill="#e2b57c"/>
    <path id="Path_921" data-name="Path 921" d="M2126.133,2007.9a1.135,1.135,0,0,0,1.606,0l8.362-8.362a1.135,1.135,0,0,0-1.606-1.606l-8.362,8.362A1.134,1.134,0,0,0,2126.133,2007.9Z" transform="translate(-1055.489 -834.52)" fill="#e2b57c"/>
    <path id="Path_922" data-name="Path 922" d="M1092.721,2208.106h-19.76V2186.3a1.4,1.4,0,0,0-1.4-1.4h-64.031a1.4,1.4,0,0,0-1.4,1.4v21.809h-8.4a1.136,1.136,0,0,0,0,2.272h8.408v19.485a1.4,1.4,0,0,0,1.4,1.4h64.031a1.4,1.4,0,0,0,1.4-1.4v-19.485h19.76a1.136,1.136,0,1,0-.006-2.272Zm-22.025-20.935v32.423h-62.275v-32.423Zm-62.281,41.817v-7.122h62.275v7.122Z" transform="translate(0 -1009.594)" fill="#e2b57c"/>
    <path id="Path_923" data-name="Path 923" d="M2043.609,1117.869a6.442,6.442,0,0,0-3.812-3.166,6.882,6.882,0,0,0-4.844.333l-.294.137c.229-1.077.411-2.024.555-2.82a6.421,6.421,0,0,0-6.312-7.553h-36.059a6.421,6.421,0,0,0-6.312,7.553c.144.8.326,1.75.555,2.82-.1-.046-.2-.1-.294-.137a6.847,6.847,0,0,0-4.844-.333,6.493,6.493,0,0,0-4.276,8.107c.431,1.4,1.965,3.192,4.68,5.477,1.886,1.593,3.642,2.82,3.753,2.892l8.917,6.28a33.409,33.409,0,0,0,6.1,8.134,16.758,16.758,0,0,0,5.5,3.531,5.3,5.3,0,0,1-.9,2.409,4.885,4.885,0,0,1-3.943,1.886h-2.441a3.9,3.9,0,0,0,0,7.807H2022.4a3.9,3.9,0,1,0,0-7.807h-2.441a4.866,4.866,0,0,1-3.943-1.886,5.225,5.225,0,0,1-.9-2.409,16.655,16.655,0,0,0,5.5-3.531,33.237,33.237,0,0,0,6.1-8.134l8.917-6.28c.1-.072,1.86-1.3,3.753-2.892,2.716-2.285,4.25-4.08,4.68-5.477A6.477,6.477,0,0,0,2043.609,1117.869Zm-56.2,11.443c-.02-.013-1.762-1.227-3.59-2.768-3.186-2.676-3.838-3.975-3.976-4.413a4.214,4.214,0,0,1,2.774-5.261,4.556,4.556,0,0,1,5.425,2.383c.346,1.332.744,2.768,1.214,4.276a81.075,81.075,0,0,0,3.6,9.622l-5.451-3.838Zm26.783,23.565a7.154,7.154,0,0,0,5.771,2.813h2.441a1.632,1.632,0,1,1,0,3.264h-23.062a1.632,1.632,0,1,1,0-3.264h2.441a7.145,7.145,0,0,0,5.771-2.813,7.38,7.38,0,0,0,1.279-3.146,11.6,11.6,0,0,0,2.017.2h.039a13.009,13.009,0,0,0,2.017-.2A7.44,7.44,0,0,0,2014.189,1152.877Zm-3.323-5.222c-6.221-.111-10.934-6.025-13.989-11.535h0c-.281-.5-.542-1-.79-1.488-4.693-9.2-6.789-19.681-7.324-22.677a4.142,4.142,0,0,1,4.073-4.876H2028.9a4.107,4.107,0,0,1,3.166,1.475,4.165,4.165,0,0,1,.907,3.4,87.906,87.906,0,0,1-7.324,22.677c-.248.49-.516.992-.79,1.488h0C2021.8,1141.636,2017.087,1147.544,2010.866,1147.655Zm31.026-25.517c-.137.431-.79,1.73-3.962,4.4-1.828,1.541-3.583,2.768-3.6,2.774a.006.006,0,0,0-.006.007l-5.451,3.838a82.278,82.278,0,0,0,3.6-9.622c.463-1.508.862-2.937,1.208-4.269a4.56,4.56,0,0,1,5.431-2.389,4.215,4.215,0,0,1,2.48,2.056A4.152,4.152,0,0,1,2041.892,1122.138Z" transform="translate(-916.761)" fill="#e2b57c"/>
    <path id="Path_924" data-name="Path 924" d="M2648.789,1298.26a1.137,1.137,0,0,0-2.239-.4,53.9,53.9,0,0,1-2.337,8.695,1.137,1.137,0,0,0,.679,1.456,1.164,1.164,0,0,0,.385.065,1.143,1.143,0,0,0,1.071-.751A56.191,56.191,0,0,0,2648.789,1298.26Z" transform="translate(-1539.997 -179.582)" fill="#e2b57c"/>
    <path id="Path_925" data-name="Path 925" d="M2279.748,1318.426a6.73,6.73,0,0,1-4.478-2.05,19.171,19.171,0,0,1-3.753-5.3,51.057,51.057,0,0,1-4.237-13.114,1.137,1.137,0,0,0-2.239.4,53.278,53.278,0,0,0,4.445,13.748,21.23,21.23,0,0,0,4.224,5.927,8.958,8.958,0,0,0,5.993,2.663h.02a1.137,1.137,0,0,0,1.136-1.116A1.119,1.119,0,0,0,2279.748,1318.426Z" transform="translate(-1185.624 -179.675)" fill="#e2b57c"/>
  </g>
</svg>
